<svg width="658" height="664" viewBox="0 0 658 664" fill="none" xmlns="http://www.w3.org/2000/svg">
<path d="M265 262C297.755 259.732 326.5 255 326.5 231L340 359H265V262Z" fill="#DBAADF"/>
<path d="M85.5 152.5C85.5 127.5 79.5 100.5 68 90.5H303.5C372 90.5 440 135 440 210.5C440 260 410.5 300.5 366.5 315C410 314.5 467.5 347.5 467.5 432C467.5 505 409.5 573 286.5 573H68C79.5 563 85.5 536 85.5 511V152.5ZM284 364H198V479H284C333 479 355 454.5 355 421.5C355 388.5 333 364 284 364ZM198 184.5V274.5H278C305.5 274.5 326 254 326 229.5C326 205 305.5 184.5 278 184.5H198Z" fill="#DBAADF"/>
<path d="M245 91H318V204.5C302 187 294.766 185.5 265.359 185.5L245 91Z" fill="#3D0042"/>
<mask id="mask0_327_3" style="mask-type:alpha" maskUnits="userSpaceOnUse" x="36" y="91" width="251" height="482">
<rect x="36" y="91" width="251" height="482" fill="#D9D9D9"/>
</mask>
<g mask="url(#mask0_327_3)">
<path d="M215.5 573H68C79.5 563 85.5 535.5 85.5 510.5V153C85.5 128 79.5 100.5 68 90.5H435V213.5C410.5 190.5 372.5 185.5 348 185.5H198V336C217 290 263.5 257.5 321.5 257.5C352 257.5 382 267 393 282V394.5C373 377.5 348.5 363 291.5 363C274 363 197.5 370.5 198 405.5V511C198 536 204 563 215.5 573Z" fill="#3D0042"/>
<path d="M198 275C243.756 259.265 268 261.5 307.5 258.5L307 364C234.534 363.401 205 382 198 400V275Z" fill="#3D0042"/>
</g>
</svg>
