<?xml version="1.0" encoding="UTF-8"?>
<svg version="1.1" xmlns="http://www.w3.org/2000/svg" width="3200" height="720">
<path d="M0 0 C1056 0 2112 0 3200 0 C3200 237.6 3200 475.2 3200 720 C2144 720 1088 720 0 720 C0 482.4 0 244.8 0 0 Z " fill="#F1F1F1" transform="translate(0,0)"/>
<path d="M0 0 C0.7331543 0.18191895 1.46630859 0.36383789 2.22167969 0.55126953 C12.8546732 3.25912564 22.39063037 7.77412113 32 13 C33.62615234 13.86818359 33.62615234 13.86818359 35.28515625 14.75390625 C64.43758 30.96641546 84.44137252 59.80709198 94.0625 91.25 C94.57792358 92.92932617 94.57792358 92.92932617 95.10375977 94.64257812 C98.35779233 105.60515521 100.50599511 116.67027734 102 128 C102.15251221 129.07616577 102.15251221 129.07616577 102.30810547 130.17407227 C103.32588915 138.48234386 103.22211342 146.87024614 103.24023438 155.2277832 C103.24986568 157.90022821 103.28093104 160.57187761 103.3125 163.24414062 C103.38531886 175.11566937 102.19890406 186.34451355 100 198 C99.81614746 199.04518799 99.63229492 200.09037598 99.44287109 201.16723633 C96.78872206 216.07649819 92.61682948 229.3351692 86 243 C85.30583984 244.50046875 85.30583984 244.50046875 84.59765625 246.03125 C78.85957076 258.11142997 71.2397754 268.367377 62 278 C61.24203125 278.82113281 60.4840625 279.64226562 59.703125 280.48828125 C53.13417511 287.38997207 45.92516383 292.78941242 38 298 C36.95585938 298.70125 35.91171875 299.4025 34.8359375 300.125 C11.22610795 314.83087923 -16.54838539 318.32476116 -43.75 318.4375 C-44.61092255 318.44394531 -45.47184509 318.45039063 -46.3588562 318.45703125 C-62.34791268 318.53019986 -78.14943644 317.0706054 -93.4375 312.125 C-94.27112061 311.86307861 -95.10474121 311.60115723 -95.96362305 311.33129883 C-129.29179507 300.66874462 -154.88797098 277.97995546 -170.96508789 247.03125 C-174.75203644 239.60446811 -178.05201079 232.41276116 -180.2890625 224.359375 C-180.96495191 221.97511418 -180.96495191 221.97511418 -181.96826172 219.65795898 C-183.6484802 215.32938855 -184.51110308 210.84044924 -185.5 206.3125 C-185.71269531 205.38888672 -185.92539062 204.46527344 -186.14453125 203.51367188 C-189.54993303 188.00133556 -190.40773862 172.40033237 -190.375 156.5625 C-190.37545319 155.69991577 -190.37590637 154.83733154 -190.37637329 153.9486084 C-190.30693656 108.63409519 -177.67128145 65.70944952 -145.875 32.5 C-132.91221457 19.86173493 -117.70380365 10.61008404 -100.52734375 4.859375 C-98.01324208 4.03984828 -98.01324208 4.03984828 -95.69140625 3.015625 C-67.83976119 -8.57065934 -28.79888305 -7.49214208 0 0 Z " fill="#421150" transform="translate(586,186)"/>
<path d="M0 0 C20.95893374 -0.07030598 41.91784784 -0.12309341 62.87687588 -0.15543652 C72.6100962 -0.17085796 82.34324294 -0.19185636 92.07641602 -0.22631836 C100.56698585 -0.25636618 109.05750236 -0.27560926 117.5481239 -0.28226548 C122.0373677 -0.28615187 126.52645903 -0.29518504 131.01565361 -0.31719017 C135.25506964 -0.33779937 139.49427276 -0.34378538 143.73373413 -0.33932304 C145.27627285 -0.34013747 146.81881991 -0.34595586 148.36131477 -0.35761642 C173.82419816 -0.54039718 197.76726002 5.69239303 216.6640625 23.671875 C217.43492187 24.44015625 218.20578125 25.2084375 219 26 C219.77085937 26.74765625 220.54171875 27.4953125 221.3359375 28.265625 C235.54219899 42.9082563 240.66497176 61.04411058 240.54345703 81.0769043 C240.26823748 90.10424803 238.52465936 97.72309543 235 106 C234.31357422 107.62808594 234.31357422 107.62808594 233.61328125 109.2890625 C226.30276887 125.11181531 214.1797938 135.8884607 199 144 C199.96679688 144.23074219 200.93359375 144.46148437 201.9296875 144.69921875 C220.01612038 149.16083397 236.06568975 158.14486394 246.16015625 174.3984375 C249.69171674 180.3002474 253.26284112 186.30614778 255 193 C255.27585937 194.05445313 255.55171875 195.10890625 255.8359375 196.1953125 C261.42691388 221.17517946 258.32003206 245.00770168 245.07421875 266.98828125 C228.26913095 291.38888896 201.71306919 305.20071904 173.10732841 310.63311386 C158.17607602 313.11279784 142.94011916 312.50498085 127.8548913 312.40557575 C123.34533334 312.38022539 118.83575959 312.37819405 114.32614136 312.37347412 C105.8233994 312.36114157 97.32086813 312.32845459 88.81821811 312.28807616 C79.12263818 312.243052 69.42704711 312.22129511 59.73138833 312.20129442 C39.82080887 312.15971091 19.91041782 312.08955236 0 312 C0.34063477 311.2675708 0.68126953 310.5351416 1.03222656 309.78051758 C1.48049805 308.80751709 1.92876953 307.8345166 2.390625 306.83203125 C2.83438477 305.87272705 3.27814453 304.91342285 3.73535156 303.92504883 C7.90198081 294.28790887 9.14972791 285.04178982 9.14044189 274.62942505 C9.14341302 273.5861146 9.14638414 272.54280414 9.1494453 271.46787822 C9.15811601 267.97222969 9.1596392 264.47661547 9.16113281 260.98095703 C9.16576227 258.47404406 9.1707871 255.96713179 9.17617798 253.46022034 C9.18929483 246.64773486 9.19578312 239.83526064 9.20018864 233.02276468 C9.20295612 228.76283424 9.20719451 224.50290606 9.21169281 220.24297714 C9.22388487 208.43208267 9.23418279 196.62119001 9.2375679 184.81028938 C9.23778747 184.05484901 9.23800703 183.29940864 9.23823325 182.52107614 C9.23845153 181.76389045 9.23866981 181.00670477 9.2388947 180.22657406 C9.23933816 178.69239052 9.23978472 177.15820698 9.24023438 175.62402344 C9.2404558 174.86302542 9.24067723 174.1020274 9.24090537 173.31796883 C9.24484723 161.00716572 9.26228278 148.69642202 9.2855939 136.38564183 C9.30937293 123.72471333 9.3217728 111.06381455 9.32293582 98.40286338 C9.32384916 91.30308984 9.3295145 84.20339362 9.34775543 77.10364151 C9.36487399 70.41742331 9.36636033 63.73137607 9.35761642 57.04513359 C9.3568494 54.60075805 9.36114419 52.15637445 9.37107468 49.71201897 C9.61637181 24.90592628 9.61637181 24.90592628 1 2 C0.67 1.34 0.34 0.68 0 0 Z " fill="#421050" transform="translate(2010,187)"/>
<path d="M0 0 C0.72411072 0.00054382 1.44822144 0.00108765 2.1942749 0.00164795 C25.62822556 0.08235004 50.13143257 4.9329574 68.46484375 20.6875 C73.87820662 26.63806682 74.58147315 30.62962595 74.50552368 38.54902649 C74.5116138 39.57121361 74.51770392 40.59340074 74.52397859 41.64656323 C74.53959116 45.07100348 74.52678424 48.49474557 74.51416016 51.91918945 C74.51962061 54.37522318 74.52686181 56.83125351 74.53575134 59.28727722 C74.55110064 64.57796573 74.55439215 69.86845307 74.54698563 75.15914345 C74.53644889 82.82702384 74.54988747 90.49472017 74.56945018 98.1625761 C74.60078815 110.62832282 74.61579457 123.0940306 74.61914062 135.55981445 C74.61934461 136.30559709 74.6195486 137.05137973 74.61975877 137.81976184 C74.61996214 138.5664049 74.62016551 139.31304797 74.62037504 140.08231658 C74.62328798 150.6402515 74.63007775 161.19817431 74.64160156 171.75610352 C74.64240686 172.49763821 74.64321215 173.2391729 74.64404185 174.00317834 C74.65784333 186.40987011 74.67967043 198.81654066 74.7054714 211.2232129 C74.72084029 218.86102421 74.72814447 226.49876562 74.72467647 234.13659211 C74.72237673 240.00733216 74.72980733 245.87803445 74.74055672 251.74876595 C74.74322123 254.14272683 74.74251921 256.53669443 74.73804665 258.93065262 C74.20385605 285.17453588 74.20385605 285.17453588 81.0625 310.1875 C82.1901234 312.5916782 83.15749427 314.84748282 84 317.375 C53.31 317.375 22.62 317.375 -9 317.375 C-7 312.375 -7 312.375 -6 310.05078125 C-0.36346531 296.73006449 0.12024737 283.01183102 0.31640625 268.7109375 C0.33505737 267.58083252 0.3537085 266.45072754 0.3729248 265.28637695 C0.44067647 261.10765608 0.50117151 256.92882008 0.5625 252.75 C0.706875 243.38625 0.85125 234.0225 1 224.375 C-27.05 224.705 -55.1 225.035 -84 225.375 C-82.72371547 234.94713398 -81.45726487 243.78865982 -78.9375 253 C-78.48395142 254.66542847 -78.48395142 254.66542847 -78.02124023 256.36450195 C-74.9675625 267.14686141 -70.87328701 277.29610768 -66 287.375 C-65.48735596 288.43581787 -65.48735596 288.43581787 -64.96435547 289.51806641 C-60.88397649 297.81636523 -56.12878766 305.39070208 -50.6875 312.86328125 C-49 315.375 -49 315.375 -49 317.375 C-78.37 317.375 -107.74 317.375 -138 317.375 C-145.07676977 298.50361395 -145.07676977 298.50361395 -147.5 289.6875 C-147.78842773 288.64207031 -148.07685547 287.59664063 -148.37402344 286.51953125 C-166.72504227 218.34137585 -169.23158945 143.31385301 -133.54345703 80.29223633 C-111.95777508 43.16214819 -78.35976664 16.09642953 -37 4.375 C-34.01617298 3.61356696 -31.02053593 2.97311094 -28 2.375 C-27.11779785 2.19203369 -26.2355957 2.00906738 -25.32666016 1.82055664 C-16.90070981 0.22493768 -8.54796832 -0.02421244 0 0 Z " fill="#421050" transform="translate(2719,181.625)"/>
<path d="M0 0 C30.69 0 61.38 0 93 0 C91 5 91 5 89.5625 7.6875 C83.75826361 19.99248115 83.85167239 32.65936029 83.87060547 45.99023438 C83.86924844 47.59942667 83.86746681 49.20861866 83.86529541 50.81781006 C83.86075403 55.16952724 83.86249783 59.52122058 83.8656745 63.87293816 C83.86821865 68.44804826 83.86585453 73.02315641 83.86428833 77.5982666 C83.86247115 85.28817101 83.86485957 92.9780658 83.86962891 100.66796875 C83.87505516 109.51841428 83.87331898 118.36883671 83.8678025 127.21928167 C83.86323993 134.84854245 83.86263658 142.47779634 83.86524117 150.10705805 C83.86678873 154.64976027 83.86704024 159.1924517 83.86370468 163.7351532 C83.8607806 168.01650298 83.86288349 172.29782355 83.86859894 176.57917023 C83.86990319 178.13621726 83.86957307 179.69326683 83.86733627 181.25031281 C83.85696673 189.21321057 83.98699986 197.14738455 84.42996216 205.09924316 C84.46660315 205.78219751 84.50324415 206.46515185 84.54099548 207.16880178 C85.27244593 218.99684621 87.58671816 230.79453058 95.5625 239.9375 C96.366875 240.618125 97.17125 241.29875 98 242 C98.5775 242.53625 99.155 243.0725 99.75 243.625 C111.05392191 250.53295228 126.88518945 250.63499716 139.5 247.875 C146.99066592 245.67609395 153.69052312 241.79480495 157.9453125 235.08984375 C165.17601876 220.76233319 165.3008422 204.85870759 165.2746582 189.20117188 C165.27901622 187.45829553 165.28420296 185.7154211 165.29014587 183.97254944 C165.30342734 179.28041739 165.30412695 174.58836641 165.30158257 169.89621925 C165.30050583 165.9625553 165.30541389 162.02890729 165.310188 158.09524679 C165.32124481 148.80876545 165.32174168 139.52232457 165.31567383 130.23583984 C165.30963163 120.6893351 165.32196016 111.14297765 165.3432439 101.59649801 C165.36091194 93.36590693 165.36685323 85.13536253 165.36360615 76.90475321 C165.36180205 72.00392039 165.36434197 67.10319277 165.37832069 62.20237732 C165.39098019 57.59259389 165.3888789 52.98303888 165.37590981 48.37325859 C165.37356237 46.69239153 165.37621202 45.01150797 165.38453293 43.33065987 C165.45385373 28.22600955 163.92311397 13.20518995 156 0 C187.02 0 218.04 0 250 0 C247.525 4.455 247.525 4.455 245 9 C240.60076015 20.35312422 240.43309275 31.53049863 240.50170898 43.54541016 C240.49787672 45.46426819 240.49224999 47.38312333 240.48498535 49.30197144 C240.47311187 53.40568936 240.47346436 57.50915104 240.48357964 61.61287308 C240.49927187 68.12249018 240.4853702 74.63184949 240.46754456 81.14144897 C240.43683238 93.79693745 240.43521799 106.45234552 240.43719482 119.10786438 C240.43859058 135.19383595 240.42797565 151.27974495 240.3886171 167.36567152 C240.37381958 173.81523172 240.37385137 180.26455886 240.38609493 186.71412206 C240.39085935 190.75333269 240.38320429 194.79245708 240.37255096 198.83165359 C240.37017736 200.68051218 240.37276213 202.52938619 240.38115883 204.37822723 C240.49844653 231.88638437 236.76756 263.30588104 216.375 283.875 C215.25439474 284.92139299 214.12986046 285.96360732 213 287 C211.8553125 288.2065625 211.8553125 288.2065625 210.6875 289.4375 C190.72918372 308.4675225 162.93634731 318.04437431 135.5390625 318.203125 C134.7496225 318.20882507 133.9601825 318.21452515 133.14682007 318.22039795 C131.48119418 318.22978961 129.8155502 318.23635852 128.14990234 318.24023438 C125.66598728 318.24984147 123.18293691 318.28087916 120.69921875 318.3125 C97.2245914 318.46808761 75.54082149 313.4014126 55 302 C54.02546875 301.47921875 53.0509375 300.9584375 52.046875 300.421875 C39.91490962 293.39810557 29.58859489 282.30699799 23 270 C22.47019531 269.03449219 21.94039062 268.06898438 21.39453125 267.07421875 C11.63524516 248.49542967 9.54344868 229.61718379 9.59936523 208.99291992 C9.59360714 207.04931215 9.58651806 205.10570795 9.57821655 203.16210938 C9.56322742 199.01316705 9.55731836 194.86435236 9.55874443 190.71538353 C9.56079584 184.14508936 9.54109528 177.57496434 9.51856995 171.00471497 C9.4777827 158.24900509 9.45903058 145.49330913 9.44239807 132.73754883 C9.41997191 116.48340584 9.3863687 100.22930263 9.33519894 83.97522432 C9.31536708 77.45296833 9.30570343 70.93080219 9.30424678 64.40851724 C9.30148423 60.34571882 9.2906283 56.28296963 9.27773666 52.22019196 C9.27348095 50.34659344 9.27258065 48.47298361 9.27541161 46.5993824 C9.30802388 23.08193818 9.30802388 23.08193818 0 2 C0 1.34 0 0.68 0 0 Z " fill="#431150" transform="translate(1147,187)"/>
<path d="M0 0 C1.28519531 0.00064453 2.57039063 0.00128906 3.89453125 0.00195312 C16.68419971 0.05979585 29.30293317 0.49133148 41.8125 3.3125 C42.78888428 3.52986816 43.76526855 3.74723633 44.77124023 3.97119141 C54.07399404 6.14802821 62.79354955 9.28218134 71.5 13.1875 C72.43247559 13.60104736 72.43247559 13.60104736 73.38378906 14.02294922 C86.48377531 19.93030151 101.56782242 28.57390483 111.5 39.1875 C111.5 43.251943 111.3709056 43.87406554 109.2265625 46.98828125 C108.73655762 47.71023682 108.24655273 48.43219238 107.74169922 49.17602539 C107.20818848 49.94293701 106.67467773 50.70984863 106.125 51.5 C105.30733154 52.70160767 105.30733154 52.70160767 104.47314453 53.92749023 C102.82275641 56.35259448 101.16194603 58.77030753 99.5 61.1875 C91.58118833 72.78170949 83.7044132 84.56526676 77.5 97.1875 C74.1246502 96.16466673 71.86822085 94.747995 69.296875 92.4140625 C65.6863341 89.26282138 61.89336001 86.68718917 57.8125 84.1875 C57.11334473 83.75743652 56.41418945 83.32737305 55.69384766 82.88427734 C33.93760143 69.65540501 9.65947248 63.64629836 -15.59375 69.15234375 C-25.11762209 71.49836606 -33.54996429 76.26937556 -39.5 84.1875 C-42.4718746 90.150801 -42.62322492 97.14523548 -40.84765625 103.53515625 C-36.28810246 113.69141554 -26.59929836 117.53336247 -16.79052734 121.34375 C-4.01351292 126.05035433 9.32659118 129.28364149 22.47998047 132.74023438 C28.57129048 134.34950854 34.54820805 136.12373212 40.5 138.1875 C41.61503906 138.55230469 42.73007813 138.91710937 43.87890625 139.29296875 C67.58307024 147.34947602 90.79866795 160.71883541 102.84765625 183.4921875 C112.06670212 203.18863367 114.526567 229.4437305 107.5 250.1875 C106.03033345 253.97024998 104.33142084 257.56865642 102.5 261.1875 C102.14292969 261.99445313 101.78585938 262.80140625 101.41796875 263.6328125 C91.20059567 286.089371 69.79870361 302.09006364 47.5 311.4375 C45.84189177 312.04473361 44.17395527 312.62542411 42.5 313.1875 C41.31148437 313.59613281 40.12296875 314.00476563 38.8984375 314.42578125 C-0.60355289 327.60773633 -47.42450957 326.26208532 -85.14453125 308.14746094 C-88.30563057 306.56540024 -91.4043483 304.89484131 -94.5 303.1875 C-95.44230469 302.67316406 -96.38460937 302.15882813 -97.35546875 301.62890625 C-103.56753347 298.07502736 -109.01423334 293.7636133 -114.5 289.1875 C-115.12777344 288.70667969 -115.75554688 288.22585938 -116.40234375 287.73046875 C-123.27273329 282.32451598 -129.36341633 274.35121092 -132.5 266.1875 C-131.60081099 262.12267296 -129.31804188 259.5349914 -126.625 256.4375 C-114.87601891 242.38405638 -104.29525668 226.79478597 -96.5 210.1875 C-92.73052213 211.44399262 -92.14425428 212.80995611 -89.9375 216.0625 C-75.28082004 236.66179748 -54.35704518 252.2652544 -29.11425781 256.82421875 C-12.77545085 259.09468427 6.78474455 258.53863619 20.5 248.1875 C26.38463098 242.88743501 29.07042702 237.0536568 29.9375 229.25 C29.64222691 223.45810477 27.68910094 218.49926608 23.6875 214.2734375 C14.04426124 206.22558751 1.7279167 202.34068853 -10.125 198.8125 C-11.37482666 198.4309375 -12.62465332 198.049375 -13.91235352 197.65625 C-20.1292255 195.76156744 -26.36342604 193.93162029 -32.61328125 192.1484375 C-62.23762538 183.66841905 -95.93988171 172.67290255 -113.5 145.1875 C-116.03411083 140.60245566 -118.33136144 135.95850482 -120.5 131.1875 C-121.0259375 130.03765625 -121.551875 128.8878125 -122.09375 127.703125 C-129.350914 109.560215 -129.06612722 86.13651686 -121.65429688 68.13330078 C-109.61299938 40.66968329 -86.83523386 21.35923388 -59.203125 10.43359375 C-39.94484984 3.21366661 -20.57749831 -0.19607446 0 0 Z " fill="#431150" transform="translate(3028.5,181.8125)"/>
<path d="M0 0 C1.07781235 0.00522675 1.07781235 0.00522675 2.17739868 0.01055908 C39.174127 0.26673307 73.78795053 8.93927409 103.25 32.3125 C104.1265625 32.98796875 105.003125 33.6634375 105.90625 34.359375 C108.03058552 35.99852278 110.14468798 37.64904359 112.25 39.3125 C111.76985192 44.25520085 109.25773888 47.58765009 106.4375 51.5 C105.43120016 52.93152501 104.42603274 54.36384658 103.421875 55.796875 C102.89916016 56.53873047 102.37644531 57.28058594 101.83789062 58.04492188 C93.02499079 70.63013308 84.13381087 83.54487826 77.25 97.3125 C73.70971359 95.73349902 70.91514556 93.57797062 67.875 91.1875 C46.64875549 74.95353656 19.52190967 64.23382028 -7.5 67.80859375 C-17.84743178 69.68512595 -29.41663831 72.26368839 -36.75 80.3125 C-41.00449975 86.6658863 -43.17475271 92.67820006 -41.75 100.3125 C-39.67705504 107.22577145 -36.16795355 111.79194996 -30.02270508 115.55541992 C-17.98313295 122.01933641 -4.64713892 125.69930777 8.50491333 129.14147949 C12.89054651 130.29211491 17.26543208 131.48226017 21.640625 132.671875 C22.91082237 133.01668915 22.91082237 133.01668915 24.2066803 133.36846924 C53.53990585 141.37315088 84.08805842 152.8696874 100.9375 179.9375 C108.27995415 193.04302457 110.42977482 206.19925377 110.4375 221.0625 C110.44974609 222.28710938 110.46199219 223.51171875 110.47460938 224.7734375 C110.48603257 231.88628046 110.01489451 238.41940704 108.25 245.3125 C108.08894775 245.98168457 107.92789551 246.65086914 107.76196289 247.34033203 C103.60804005 263.80953747 95.23434837 276.48157856 83.25 288.3125 C82.43660156 289.12460937 81.62320312 289.93671875 80.78515625 290.7734375 C74.54851928 296.69672642 67.67301287 301.04860454 60.25 305.3125 C59.40900757 305.81511353 59.40900757 305.81511353 58.55102539 306.32788086 C29.00866009 323.7774116 -18.16439559 328.43916501 -51.29052734 319.99804688 C-79.45070239 312.14875448 -113.45362496 299.76993499 -129.16796875 272.88671875 C-132.18365009 266.59804537 -132.18365009 266.59804537 -130.75 262.3125 C-129.52587891 260.47583008 -129.52587891 260.47583008 -127.9765625 258.58203125 C-127.40454102 257.87038818 -126.83251953 257.15874512 -126.24316406 256.42553711 C-125.62666992 255.66635986 -125.01017578 254.90718262 -124.375 254.125 C-113.44489464 240.35925409 -104.5214817 225.51513314 -95.75 210.3125 C-92.62726314 213.34953567 -89.81355491 216.40296767 -87.1875 219.875 C-71.80541095 239.18870509 -50.85913041 254.19633107 -25.75 257.3125 C-9.0240256 258.20511424 8.64846755 258.30075578 22.125 246.875 C27.78282299 240.0523311 29.69188401 235.16968475 29.5859375 226.38671875 C28.89532509 220.06681212 25.54369125 216.12807671 20.75 212.1875 C11.33248252 205.8103833 0.56879544 202.2050963 -10.25 199 C-12.14479794 198.42402379 -14.03959217 197.84803506 -15.93417358 197.27134705 C-17.89039111 196.67738643 -19.84779481 196.08751496 -21.80566406 195.49902344 C-81.37098759 177.59292847 -81.37098759 177.59292847 -99.75 160.3125 C-100.62011719 159.52101563 -101.49023438 158.72953125 -102.38671875 157.9140625 C-108.30883744 152.30177065 -112.74171732 146.40490366 -116.75 139.3125 C-117.13800781 138.64734375 -117.52601562 137.9821875 -117.92578125 137.296875 C-127.32965118 120.01408702 -129.49745771 94.10694722 -124.26538086 75.10229492 C-123.25793266 72.08993648 -122.05920841 69.20526023 -120.75 66.3125 C-120.31558594 65.26964844 -119.88117188 64.22679687 -119.43359375 63.15234375 C-107.71058415 37.26820574 -82.68920158 19.61003683 -56.82470703 9.70556641 C-38.56243607 3.10056219 -19.37915049 -0.11559879 0 0 Z " fill="#431150" transform="translate(1621.75,181.6875)"/>
<path d="M0 0 C77.88 0 155.76 0 236 0 C236 26.07 236 52.14 236 79 C231.38 76.36 226.76 73.72 222 71 C208.28036689 64.7330071 194.19217667 62.83043792 179.24780273 62.88647461 C178.21261002 62.88632858 177.1774173 62.88618256 176.1108551 62.8860321 C172.71841269 62.886724 169.32602647 62.89448229 165.93359375 62.90234375 C163.56991099 62.9042105 161.20622784 62.90563319 158.84254456 62.90663147 C152.6431673 62.91043639 146.44381374 62.92024928 140.2444458 62.93133545 C132.79452758 62.94339903 125.34460141 62.94796146 117.89467621 62.95378876 C106.59643436 62.9634622 95.29824444 62.98263293 84 63 C83.67 93.03 83.34 123.06 83 154 C83.66 154 84.32 154 85 154 C85.36738281 152.69675781 85.36738281 152.69675781 85.7421875 151.3671875 C91.89250671 134.90266838 108.9568473 122.5722073 124.25 115.1875 C144.81083947 105.86524503 170.39781846 104.64031232 191.875 111.75 C197.04145664 113.80887153 201.62091691 116.57884133 206 120 C206.52664749 120.37997635 207.05329498 120.7599527 207.59590149 121.15144348 C209.76752365 124.01047813 209.35888595 126.49575505 209.34057617 130.04174805 C209.34101425 130.75419678 209.34145233 131.46664551 209.34190369 132.20068359 C209.3398143 134.55464115 209.31647715 136.90788569 209.29296875 139.26171875 C209.2873733 140.89410513 209.28310296 142.52649655 209.28010559 144.15888977 C209.2686527 148.45474158 209.23918187 152.75028896 209.20599365 157.04602051 C209.17530224 161.42972699 209.16160225 165.81348267 209.14648438 170.19726562 C209.11431245 178.79831677 209.06311093 187.39912051 209 196 C205.00102873 193.72255634 201.03743851 191.42386763 197.125 189 C173.42030284 174.89090739 140.8136004 174.69748897 114.5 180.7890625 C107.44239721 182.60413011 100.53757521 184.85000817 94.28125 188.65234375 C92 190 92 190 90 190 C89.731875 190.598125 89.46375 191.19625 89.1875 191.8125 C88.00691239 193.98726664 86.73183488 195.26816512 85 197 C83.7780275 200.66591749 83.83655501 204.0552684 83.82299805 207.87353516 C83.81642685 208.67571976 83.80985565 209.47790436 83.80308533 210.30439758 C83.78334294 212.96595359 83.77167877 215.62745273 83.76171875 218.2890625 C83.75764322 219.20286053 83.7535677 220.11665855 83.74936867 221.05814743 C83.72848971 225.90822879 83.71420395 230.75828184 83.70483398 235.60839844 C83.69385186 240.57624898 83.6595537 245.54364134 83.61966228 250.51133156 C83.59326213 254.36370565 83.58512094 258.2159753 83.58155251 262.06843185 C83.57673533 263.89652932 83.56526396 265.72462371 83.54651451 267.55263138 C83.40417156 282.36878532 83.91571296 297.63527597 93 310 C93 310.66 93 311.32 93 312 C61.98 312 30.96 312 -1 312 C1.31 307.38 3.62 302.76 6 298 C9.87831109 285.18715339 9.42458587 272.41538018 9.38818359 259.1328125 C9.39225443 256.63132499 9.39759917 254.12983928 9.40411377 251.62835693 C9.41632179 245.56821456 9.41460623 239.50822716 9.40587585 233.44809103 C9.39907072 228.51813946 9.39819473 223.58821909 9.4014473 218.65826416 C9.401907 217.95371066 9.40236669 217.24915716 9.40284032 216.52325356 C9.4037996 215.09148327 9.40477225 213.65971298 9.4057581 212.22794271 C9.4142906 198.83627709 9.40451159 185.44467332 9.388357 172.05301785 C9.37495576 160.58935076 9.37728446 149.12577483 9.39111328 137.66210938 C9.40720706 124.31482127 9.41346683 110.96758721 9.40427649 97.62029076 C9.40332095 96.19410579 9.40237784 94.76792082 9.4014473 93.34173584 C9.40075306 92.28946719 9.40075306 92.28946719 9.40004479 91.21594059 C9.39746627 86.29810154 9.4018012 81.38029708 9.40888596 76.46246338 C9.41823137 69.83031491 9.41147525 63.1983109 9.39420319 56.56616974 C9.39025542 54.14030491 9.39134286 51.71442552 9.39799118 49.28856659 C9.5285624 27.52803684 9.5285624 27.52803684 2.96484375 6.96484375 C1.85266841 4.69996845 0.93709707 2.34274266 0 0 Z " fill="#421050" transform="translate(60,187)"/>
<path d="M0 0 C1.32088623 0.02320313 1.32088623 0.02320313 2.66845703 0.046875 C25.32891369 0.52741484 47.82292313 6.78212133 68 17 C69.36125 17.67289063 69.36125 17.67289063 70.75 18.359375 C77.51382615 21.85401851 83.21976599 26.07061644 89 31 C89.87785156 31.69738281 90.75570313 32.39476562 91.66015625 33.11328125 C92.49417969 33.79777344 93.32820313 34.48226562 94.1875 35.1875 C94.94417969 35.79980469 95.70085937 36.41210938 96.48046875 37.04296875 C98 39 98 39 97.8828125 41.2890625 C97.44582031 42.63097656 97.44582031 42.63097656 97 44 C96.65324219 45.12792969 96.30648438 46.25585938 95.94921875 47.41796875 C95.53285156 48.66191406 95.11648438 49.90585938 94.6875 51.1875 C94.07455078 53.03408203 94.07455078 53.03408203 93.44921875 54.91796875 C92.45005991 57.8181569 91.33308043 60.64644638 90.16015625 63.48046875 C87.29548675 70.55928017 85.06176386 77.85229779 82.75 85.125 C82.28678855 86.57302234 81.8232492 88.02093983 81.359375 89.46875 C80.23580587 92.97796768 79.11666176 96.48857734 78 100 C77.34 100 76.68 100 76 100 C74.77842417 98.56584602 73.62332463 97.07484484 72.5 95.5625 C61.86612955 82.08027139 48.04575364 73.72427071 32 68 C31.30132813 67.67128906 30.60265625 67.34257812 29.8828125 67.00390625 C25.53827711 65.49097184 21.1118804 64.97627529 16.5625 64.375 C15.57620605 64.24456299 14.58991211 64.11412598 13.57373047 63.97973633 C5.97022394 63.0260319 -1.33337082 62.51408688 -9 63 C-10.22203125 63.06960937 -11.4440625 63.13921875 -12.703125 63.2109375 C-32.47781413 64.983569 -51.08474202 72.95538474 -66 86 C-66.68835938 86.58136719 -67.37671875 87.16273438 -68.0859375 87.76171875 C-74.65407972 93.74573765 -78.73606984 101.31105564 -83 109 C-83.44601562 109.79019531 -83.89203125 110.58039063 -84.3515625 111.39453125 C-87.00707013 116.37107417 -88.51180247 121.5781344 -90 127 C-90.26941406 127.88945312 -90.53882813 128.77890625 -90.81640625 129.6953125 C-97.90361409 153.73019127 -95.89606149 186.39748453 -85.1875 209.1875 C-84.48245994 210.4718753 -83.75089271 211.74188175 -83 213 C-82.50757813 213.83789062 -82.01515625 214.67578125 -81.5078125 215.5390625 C-69.23138772 235.62261456 -51.69467538 250.26821517 -28.640625 256.0703125 C-1.35312293 262.04019832 27.73203219 259.67438463 51.796875 244.7265625 C54.98232888 242.63272781 58.00547743 240.35958082 61 238 C61.75539063 237.41476562 62.51078125 236.82953125 63.2890625 236.2265625 C68.65747007 231.81161728 72.81988748 226.5253083 77 221 C78.9844937 223.97674055 79.75719265 226.16388635 80.74609375 229.5703125 C83.06012366 237.29803629 85.64189687 244.92181916 88.26391602 252.54980469 C89.06812949 254.89139109 89.867226 257.23468357 90.66601562 259.578125 C91.18459035 261.09125056 91.70345998 262.60427509 92.22265625 264.1171875 C92.45710953 264.80585907 92.69156281 265.49453064 92.93312073 266.20407104 C94.06508115 269.48483132 95.27278892 272.68370793 96.67675781 275.85864258 C98 279 98 279 97.94921875 281.14453125 C88.97970485 298.67753167 60.7436746 309.54117156 43.09033203 315.359375 C39.44844146 316.47550684 35.77482494 317.40021993 32.0625 318.25 C31.40846191 318.40114258 30.75442383 318.55228516 30.08056641 318.70800781 C15.79754421 321.72895736 1.36368704 322.4086664 -13.1875 322.375 C-14.03829132 322.37478851 -14.88908264 322.37457703 -15.76565552 322.37435913 C-29.18202656 322.34117948 -41.9907922 321.53427703 -55 318 C-56.1125415 317.70319336 -56.1125415 317.70319336 -57.24755859 317.40039062 C-81.35341304 310.79253165 -101.55892813 298.67144397 -120 282 C-120.75152344 281.32195312 -121.50304687 280.64390625 -122.27734375 279.9453125 C-132.2435137 270.44789901 -140.20782567 258.90022347 -147 247 C-147.34160156 246.41105957 -147.68320312 245.82211914 -148.03515625 245.21533203 C-152.6955233 237.13062702 -156.2479003 229.1659186 -158.9921875 220.2421875 C-159.91051337 217.11351038 -159.91051337 217.11351038 -160.98461914 214.62475586 C-161.99689894 212.00801622 -162.65858957 209.50127099 -163.25390625 206.76171875 C-163.46853516 205.77623047 -163.68316406 204.79074219 -163.90429688 203.77539062 C-164.12150391 202.75638672 -164.33871094 201.73738281 -164.5625 200.6875 C-164.78357422 199.68009766 -165.00464844 198.67269531 -165.23242188 197.63476562 C-167.1216259 188.87365331 -168.15924451 180.46622555 -168.23828125 171.515625 C-168.246353 170.61994812 -168.25442474 169.72427124 -168.26274109 168.80145264 C-168.27650735 166.90883268 -168.28726249 165.01618868 -168.29516602 163.12353516 C-168.30659287 161.22925288 -168.32689379 159.33500037 -168.35668945 157.44091797 C-169.03840355 113.94070308 -152.08529007 73.78408275 -122.38549805 42.2878418 C-102.71395151 22.12749218 -77.05906653 9.78330024 -50 3 C-49.34322266 2.83338867 -48.68644531 2.66677734 -48.00976562 2.49511719 C-32.33802238 -1.27077932 -15.99497249 -0.35539447 0 0 Z " fill="#431151" transform="translate(962,182)"/>
<path d="M0 0 C13.92666035 11.0228904 21.85137663 26.36170751 26.25 43.3125 C26.52457031 44.22773438 26.79914063 45.14296875 27.08203125 46.0859375 C33.27002916 67.85061981 33.09145406 93.13586064 29.25 115.3125 C29.13172852 115.99973145 29.01345703 116.68696289 28.89160156 117.39501953 C25.00706009 138.74022897 15.30051933 158.91546551 -2.30859375 172.25 C-14.8188458 180.67490123 -26.75953153 183.49178981 -41.5625 183.5 C-42.71298828 183.51224609 -43.86347656 183.52449219 -45.04882812 183.53710938 C-51.3364497 183.54791904 -56.74351156 183.18534717 -62.75 181.3125 C-63.67425781 181.04050781 -64.59851563 180.76851562 -65.55078125 180.48828125 C-83.66669534 174.26181622 -96.29973538 161.41103002 -104.68701172 144.41357422 C-118.10931814 115.96221377 -119.62661205 79.76606767 -112.75 49.3125 C-112.40775391 47.74822266 -112.40775391 47.74822266 -112.05859375 46.15234375 C-106.99236956 25.56899862 -95.71512168 6.84030997 -77.75 -4.6875 C-74.1748707 -6.69257251 -70.60020167 -8.28692735 -66.75 -9.6875 C-65.89792969 -10.00589844 -65.04585937 -10.32429687 -64.16796875 -10.65234375 C-43.42833548 -17.0908279 -17.27201399 -13.0113181 0 0 Z " fill="#C7C7C7" transform="translate(584.75,257.6875)"/>
<path d="M0 0 C31.02 0 62.04 0 94 0 C92.02 3.63 90.04 7.26 88 11 C84.5973415 21.4426416 83.85063472 31.51561628 83.85282898 42.44503784 C83.84915229 43.44810821 83.8454756 44.45117857 83.8416875 45.48464501 C83.83074144 48.8203351 83.82682236 52.15599394 83.82299805 55.49169922 C83.81672648 57.89419145 83.81007907 60.29668273 83.80308533 62.69917297 C83.78393286 69.88833713 83.77326858 77.07750173 83.76435754 84.26668423 C83.76084196 86.98185854 83.7566961 89.69703171 83.75251788 92.41220506 C83.73406078 104.40795705 83.71831485 116.40370908 83.71061993 128.39947319 C83.70871049 131.32816443 83.70679009 134.25685566 83.70483398 137.18554688 C83.70410837 138.27721781 83.70410837 138.27721781 83.7033681 139.39094271 C83.69508006 151.16208895 83.66975872 162.93313317 83.63725331 174.70423494 C83.60405224 186.82742313 83.58615952 198.95055969 83.58297569 211.07379353 C83.5808228 217.86514639 83.57225512 224.65635039 83.54651451 231.44765854 C83.52307784 237.84505829 83.51906288 244.24219193 83.52927589 250.63962364 C83.5297676 252.97267357 83.52355651 255.30573731 83.50971985 257.63874626 C83.39999129 277.2558356 85.16285961 294.32571921 94 312 C62.98 312 31.96 312 0 312 C0.99 310.02 0.99 310.02 2 308 C3.04928514 305.40322802 4.06904877 302.80528026 5.0625 300.1875 C5.33126953 299.50107422 5.60003906 298.81464844 5.87695312 298.10742188 C6.26463867 297.08551758 6.26463867 297.08551758 6.66015625 296.04296875 C6.89355713 295.43477295 7.12695801 294.82657715 7.36743164 294.19995117 C9.2145009 287.77619931 9.14448014 281.28793411 9.13371277 274.661026 C9.13597833 273.63319533 9.13824388 272.60536466 9.14057809 271.54638761 C9.14689798 268.10911996 9.14609 264.67189195 9.14526367 261.23461914 C9.14825652 258.76696726 9.15165934 256.29931584 9.15544128 253.83166504 C9.16335775 247.82675837 9.16649554 241.82186721 9.16705366 235.81695677 C9.16752974 230.93024574 9.1695891 226.04353793 9.17275429 221.15682793 C9.18155916 207.27883925 9.18617424 193.40085829 9.18542381 179.52286679 C9.18538386 178.77531831 9.1853439 178.02776983 9.18530273 177.25756836 C9.18526185 176.5090983 9.18522097 175.76062824 9.18517885 174.98947727 C9.18477304 162.8792141 9.19432676 150.76898211 9.2084411 138.65872795 C9.22284462 126.20117016 9.22970902 113.74362754 9.22884732 101.28606123 C9.22851659 94.30145827 9.23120869 87.31688797 9.24202538 80.33229256 C9.25214602 73.75525679 9.25175455 67.1782778 9.24450874 60.60123444 C9.24346834 58.19717495 9.24579315 55.7931111 9.2518692 53.38905907 C9.29772775 33.97531529 8.83487752 17.66975504 0 0 Z " fill="#421050" transform="translate(2364,187)"/>
<path d="M0 0 C16.0565625 -0.061875 16.0565625 -0.061875 32.4375 -0.125 C35.80122803 -0.14320801 39.16495605 -0.16141602 42.63061523 -0.18017578 C45.31493979 -0.18602037 47.99926612 -0.19111601 50.68359375 -0.1953125 C51.71311913 -0.20315262 51.71311913 -0.20315262 52.76344299 -0.21115112 C67.36070857 -0.31663082 82.2851602 1.4401594 93.31640625 12.05859375 C100.60843985 20.46727287 102.50739114 30.37189316 102.24609375 41.26953125 C101.34556248 51.26114013 97.0129236 58.34553908 89.875 65.1875 C77.82848422 74.9041402 62.01202345 75.31343995 47.265625 75.1953125 C46.05890137 75.19329834 44.85217773 75.19128418 43.60888672 75.18920898 C39.1558851 75.17884535 34.70293822 75.15092385 30.25 75.125 C15.27625 75.063125 15.27625 75.063125 0 75 C0 50.25 0 25.5 0 0 Z " fill="#A2A2A2" transform="translate(2093,364)"/>
<path d="M0 0 C0 31.35 0 62.7 0 95 C-28.38 95 -56.76 95 -86 95 C-86 88.4918339 -85.20857864 83.8800849 -83.5 77.75 C-83.23227783 76.78634521 -82.96455566 75.82269043 -82.6887207 74.82983398 C-75.14535525 48.63980225 -61.9596486 23.40729503 -37.79296875 9.1015625 C-25.2328085 2.41972641 -14.44360094 0 0 0 Z " fill="#A09FA0" transform="translate(2720,249)"/>
<path d="M0 0 C9.549375 -0.061875 19.09875 -0.12375 28.9375 -0.1875 C31.93577881 -0.21481201 34.93405762 -0.24212402 38.02319336 -0.27026367 C40.42040607 -0.27903194 42.81762327 -0.28667507 45.21484375 -0.29296875 C46.44271606 -0.30831665 47.67058838 -0.32366455 48.93566895 -0.33947754 C57.91658251 -0.3421982 65.97526854 0.69669987 73.296875 6.2734375 C79.34047222 12.40020348 83.1200066 19.55397821 83.3125 28.125 C83.20976132 37.38175496 80.19057589 43.55000603 73.91796875 50.27734375 C65.2277241 58.08263477 54.0387301 58.29227026 42.96875 58.1953125 C41.3295459 58.19229126 41.3295459 58.19229126 39.65722656 58.18920898 C35.60477454 58.1788051 31.55238272 58.15088284 27.5 58.125 C18.425 58.08375 9.35 58.0425 0 58 C0 38.86 0 19.72 0 0 Z " fill="#999899" transform="translate(2093,248)"/>
</svg>
