<svg xmlns="http://www.w3.org/2000/svg" xmlns:xlink="http://www.w3.org/1999/xlink" width="1080" zoomAndPan="magnify" viewBox="0 0 810 809.999993" height="1080" preserveAspectRatio="xMidYMid meet" version="1.0"><defs><g/></defs><path fill="#393be5" d="M 58.195312 510.574219 L 708.433594 510.574219 L 708.433594 746.105469 L 58.195312 746.105469 L 58.195312 510.574219 " fill-opacity="1" fill-rule="nonzero"/><g fill="#000000" fill-opacity="1"><g transform="translate(123.377385, 674.798716)"><g><path d="M 77.984375 0 L 77.984375 -86.65625 L 60.65625 -86.65625 L 60.65625 -103.984375 L 77.984375 -103.984375 L 77.984375 -121.3125 L 95.3125 -121.3125 L 95.3125 0 Z M 8.671875 0 L 8.671875 -121.3125 L 26 -121.3125 L 26 -103.984375 L 43.328125 -103.984375 L 43.328125 -86.65625 L 26 -86.65625 L 26 0 Z M 43.328125 -69.3125 L 43.328125 -86.65625 L 60.65625 -86.65625 L 60.65625 -69.3125 Z M 43.328125 -69.3125 "/></g></g></g><g fill="#000000" fill-opacity="1"><g transform="translate(253.331949, 674.798716)"><g><path d="M 8.671875 0 L 8.671875 -121.3125 L 95.3125 -121.3125 L 95.3125 -103.984375 L 26 -103.984375 L 26 -69.3125 L 77.984375 -69.3125 L 77.984375 -51.984375 L 26 -51.984375 L 26 -17.328125 L 95.140625 -17.328125 L 95.140625 0 Z M 8.671875 0 "/></g></g></g><g fill="#000000" fill-opacity="1"><g transform="translate(383.286513, 674.798716)"><g><path d="M 77.984375 0 L 77.984375 -51.984375 L 60.65625 -51.984375 L 60.65625 -69.3125 L 77.984375 -69.3125 L 77.984375 -121.3125 L 95.3125 -121.3125 L 95.3125 0 Z M 8.671875 0 L 8.671875 -121.3125 L 26 -121.3125 L 26 -103.984375 L 43.328125 -103.984375 L 43.328125 -86.65625 L 26 -86.65625 L 26 0 Z M 43.328125 -69.3125 L 43.328125 -86.65625 L 60.65625 -86.65625 L 60.65625 -69.3125 Z M 43.328125 -69.3125 "/></g></g></g><g fill="#000000" fill-opacity="1"><g transform="translate(513.241062, 674.798716)"><g><path d="M 77.984375 -17.328125 L 77.984375 0 L 26 0 L 26 -17.328125 Z M 8.671875 -17.328125 L 8.671875 -121.3125 L 26 -121.3125 L 26 -17.328125 Z M 77.984375 -17.328125 L 77.984375 -121.3125 L 95.3125 -121.3125 L 95.3125 -17.328125 Z M 77.984375 -17.328125 "/></g></g></g><g fill="#000000" fill-opacity="1"><g transform="translate(643.249571, 674.798716)"><g/></g></g><path fill="#ffffff" d="M 58.640625 45.746094 L 613.648438 45.746094 L 613.648438 473.695312 L 58.640625 473.695312 L 58.640625 45.746094 " fill-opacity="1" fill-rule="nonzero"/><g fill="#393be5" fill-opacity="1"><g transform="translate(99.438618, 368.122849)"><g><path d="M 105.71875 27.875 L 105.71875 0 L 80.5625 0 C 73.757812 0 67.351562 -1.300781 61.34375 -3.90625 C 55.34375 -6.507812 50.078125 -10.019531 45.546875 -14.4375 C 41.015625 -18.863281 37.445312 -24.132812 34.84375 -30.25 C 32.238281 -36.375 30.9375 -42.832031 30.9375 -49.625 L 31.265625 -183.5625 C 31.265625 -190.351562 32.566406 -196.75 35.171875 -202.75 C 37.785156 -208.757812 41.300781 -214.03125 45.71875 -218.5625 C 50.132812 -223.101562 55.398438 -226.675781 61.515625 -229.28125 C 67.640625 -231.882812 74.101562 -233.1875 80.90625 -233.1875 L 156.359375 -233.1875 C 163.160156 -233.1875 169.617188 -231.882812 175.734375 -229.28125 C 181.859375 -226.675781 187.128906 -223.101562 191.546875 -218.5625 C 195.960938 -214.03125 199.472656 -208.757812 202.078125 -202.75 C 204.691406 -196.75 206 -190.351562 206 -183.5625 L 206 -49.625 C 206 -42.832031 204.691406 -36.375 202.078125 -30.25 C 199.472656 -24.132812 195.90625 -18.863281 191.375 -14.4375 C 186.84375 -10.019531 181.570312 -6.507812 175.5625 -3.90625 C 169.5625 -1.300781 163.160156 0 156.359375 0 L 131.203125 0 L 131.203125 27.875 C 131.203125 29.007812 130.75 30.082031 129.84375 31.09375 C 128.9375 32.113281 127.804688 32.625 126.453125 32.625 L 110.46875 32.625 C 109.113281 32.625 107.984375 32.113281 107.078125 31.09375 C 106.171875 30.082031 105.71875 29.007812 105.71875 27.875 Z M 80.90625 -207.359375 C 74.332031 -207.359375 68.664062 -205.035156 63.90625 -200.390625 C 59.144531 -195.742188 56.765625 -190.132812 56.765625 -183.5625 L 56.765625 -49.625 C 56.765625 -43.050781 59.085938 -37.441406 63.734375 -32.796875 C 68.378906 -28.148438 73.988281 -25.828125 80.5625 -25.828125 L 156.359375 -25.828125 C 162.929688 -25.828125 168.539062 -28.148438 173.1875 -32.796875 C 177.832031 -37.441406 180.15625 -43.050781 180.15625 -49.625 L 180.15625 -183.5625 C 180.15625 -190.132812 177.832031 -195.742188 173.1875 -200.390625 C 168.539062 -205.035156 162.929688 -207.359375 156.359375 -207.359375 Z M 80.90625 -207.359375 "/></g></g></g><g fill="#393be5" fill-opacity="1"><g transform="translate(335.972399, 368.122849)"><g><path d="M 173.703125 -4.421875 L 129.515625 -103.671875 L 56.765625 -103.671875 L 56.765625 -4.765625 C 56.765625 -1.585938 55.179688 0 52.015625 0 L 36.03125 0 C 32.851562 0 31.265625 -1.585938 31.265625 -4.765625 L 31.265625 -228.421875 C 31.265625 -231.597656 32.851562 -233.1875 36.03125 -233.1875 L 156.359375 -233.1875 C 163.160156 -233.1875 169.5625 -231.882812 175.5625 -229.28125 C 181.570312 -226.675781 186.84375 -223.101562 191.375 -218.5625 C 195.90625 -214.03125 199.472656 -208.757812 202.078125 -202.75 C 204.691406 -196.75 206 -190.351562 206 -183.5625 L 206 -153.3125 C 206 -142.207031 202.65625 -132.289062 195.96875 -123.5625 C 189.28125 -114.832031 180.613281 -108.882812 169.96875 -105.71875 L 158.40625 -102.3125 L 201.90625 -4.421875 C 202.59375 -3.285156 202.648438 -2.265625 202.078125 -1.359375 C 201.515625 -0.453125 200.550781 0 199.1875 0 L 180.5 0 C 179.132812 0 177.769531 -0.453125 176.40625 -1.359375 C 175.050781 -2.265625 174.148438 -3.285156 173.703125 -4.421875 Z M 56.765625 -129.515625 L 156.359375 -129.515625 C 162.929688 -129.515625 168.539062 -131.835938 173.1875 -136.484375 C 177.832031 -141.128906 180.15625 -146.738281 180.15625 -153.3125 L 180.15625 -183.5625 C 180.15625 -190.132812 177.832031 -195.742188 173.1875 -200.390625 C 168.539062 -205.035156 162.929688 -207.359375 156.359375 -207.359375 L 56.765625 -207.359375 Z M 56.765625 -129.515625 "/></g></g></g></svg>